PathFileType	4	(X/Y/Z)	Patient4_TMGait_0pt4_03_left_42.trc.trc
DataRate	CameraRate	NumFrames	NumMarkers	Units	OrigDataRate	OrigDataStartFrame	OrigNumFrames
74.468085106383	74.468085106383	6	33	mm	74.468085106383	124	       141
Frame#	Time	Sacral			L.Shoulder			Chest			R.Shoulder			Neck			R.ASIS			L.ASIS			R.Thigh.Superior			R.Thigh.Lateral			R.Thigh.Inferior			R.Patella			L.Thigh.Superior			L.Thigh.Lateral			L.Thigh.Inferior			L.Patella			L.Shank.Superior			L.Shank.Lateral			L.Shank.Inferior			R.Shank.Superior			R.Shank.Lateral			R.Shank.Inferior			R.Heel			R.Midfoot.Superior			R.Midfoot.Lateral			R.Toe			L.Heel			L.Midfoot.Lateral			L.Midfoot.Superior			L.Toe			L.Elbow			L.Wrist			R.Elbow			R.Wrist			
		X1	Y1	Z1	X2	Y2	Z2	X3	Y3	Z3	X4	Y4	Z4	X5	Y5	Z5	X6	Y6	Z6	X7	Y7	Z7	X8	Y8	Z8	X9	Y9	Z9	X10	Y10	Z10	X11	Y11	Z11	X12	Y12	Z12	X13	Y13	Z13	X14	Y14	Z14	X15	Y15	Z15	X16	Y16	Z16	X17	Y17	Z17	X18	Y18	Z18	X19	Y19	Z19	X20	Y20	Z20	X21	Y21	Z21	X22	Y22	Z22	X23	Y23	Z23	X24	Y24	Z24	X25	Y25	Z25	X26	Y26	Z26	X27	Y27	Z27	X28	Y28	Z28	X29	Y29	Z29	X30	Y30	Z30	X31	Y31	Z31	X32	Y32	Z32	X33	Y33	Z33	

124	57.291714285714	939.703012332623	999.629060865177	514.600416144009	1084.745472544097	1429.227511232627	318.329723450174	1213.513073131692	1361.645287859922	459.726259202980	1159.258011543267	1431.240277923183	646.340704924502	1090.350151951827	1489.424238904282	474.698296181837	1180.199883727689	933.327704479647	601.976710193802	1134.048055807599	958.921364826846	330.971576085179	1180.767538444315	722.755295870746	570.655934194102	1084.944919141354	624.442501779964	639.127953827373	1141.033567143734	562.157500141795	553.679451028438	1122.973186460209	475.652209920596	558.899002776400	1207.454675307114	764.944775951033	353.915193591119	1145.658183030080	636.447543362907	284.291346335392	1250.310456554016	575.196734505492	339.298983880327	1272.617824623444	509.606777150205	336.760041414921	1252.567078451856	438.095177328929	327.562529281145	1177.887105172443	311.212545617449	281.621187010305	1263.168028773688	208.269651998307	331.474987411362	1083.421171509081	391.187476178979	567.851373301914	1002.175816864124	297.920476116085	635.690945591092	1023.326448717299	199.271109556704	567.471883482728	870.830831195377	42.949448497536	545.433996355886	1043.139270258846	95.616412771330	572.067054693926	957.376381514901	37.049348886172	616.149811810612	1164.861175625375	43.718013558130	594.238861313309	1171.367062708740	41.290668729094	377.347848811256	1239.958990807410	38.113211831361	292.612500046641	1320.662262865608	105.429156679955	310.583797114286	1448.439793620763	60.671444964181	275.017873239372	962.401911985087	1092.118939590889	235.435792160503	957.542599460150	830.593589841898	231.429298662131	1296.556108541230	1118.526719564968	759.604827042138	1507.791919603478	1210.202247209506	663.170462523258	
125	57.305142857143	940.900855544649	998.397593974835	512.114199112634	1084.402966500174	1427.907368095545	315.212185218704	1213.366008831539	1361.329229621459	456.879671599549	1158.510101421597	1430.954029728602	643.365729885112	1089.746885504847	1488.530077905275	471.480688037779	1181.504874372366	932.563515079070	599.975689313011	1135.720186006717	958.011362135079	329.112016666876	1181.554674572986	721.548727811024	568.982421612150	1084.945810995354	623.627175878188	637.359707286803	1140.679214421803	560.885805588320	552.009709994902	1121.924888492877	474.110211369291	557.136169105747	1209.567265193135	763.646769524325	352.791002665904	1146.824850166118	635.222916853176	283.989717549497	1251.181772294213	574.089027781110	339.577265613680	1272.301783912835	507.496148252981	337.680657265964	1251.683487408576	435.464824201067	328.265723482697	1175.175980308084	309.596607003383	282.240547229827	1258.184968195192	205.402453224048	333.179677379255	1081.442826118597	390.059414953990	566.384844547982	999.372230602171	297.783023887937	634.715916135508	1019.182419100654	198.727695684671	566.805152421371	865.465799634133	43.107481845647	545.434766669902	1037.801393919978	95.567625704584	571.939595651695	952.016166730762	37.048213922649	616.097074689265	1159.540066394076	43.464067231039	594.310368111930	1163.010507547656	40.259646986771	378.981370179824	1231.345200464484	37.004602739614	293.944171625466	1313.353985923703	102.470415237191	312.962065037093	1440.524483135479	55.740034896544	276.489160179440	963.493276144208	1090.126612168472	232.870603164473	960.595046745563	828.509315542349	228.771647889361	1294.881387232272	1117.697805883678	757.389303353364	1506.257527186245	1208.523776259074	660.185272217077	
126	57.318571428571	942.095529502604	997.346552662439	509.612259882001	1084.189440930411	1426.677197591760	311.970509917686	1213.334148639463	1361.094365412876	453.917431562218	1157.917796620720	1430.840365555077	640.255205051545	1089.263238529451	1487.768609312438	468.111230139186	1182.805233904968	931.901892844936	597.850719807690	1137.318537587727	957.298481446199	327.162679277868	1182.427976403228	720.427815650225	567.144371938335	1085.130913742639	622.841583367569	635.436289960008	1140.529891438763	559.676801730696	550.167676337230	1121.180875596548	472.527675623386	555.249714951056	1211.695322012807	762.695542304834	351.651683275886	1148.230651566994	634.479782918653	283.370406630271	1252.226395266411	573.412300398158	339.601814361806	1272.082988760781	505.844829048115	338.291951769180	1251.068631695319	433.311188087184	328.582910456180	1173.055396152798	308.408240868851	282.163516944957	1253.771439998457	203.108739293195	334.378213313246	1079.644515151780	388.960546267778	564.793753816685	996.725124819711	297.736496673116	633.650111997898	1015.142006488720	198.265377529309	566.077696755678	860.109571454296	43.432685987325	545.439558958962	1032.541147230765	95.550549091778	571.812008889080	946.693157487334	37.113366996442	616.030228645334	1154.274972649759	43.120956948522	594.390475225159	1155.463864536459	39.500991883409	379.990928030961	1223.673891116431	36.283958070762	294.761640348766	1306.669570434118	100.271807118385	314.788942679535	1433.402864179110	52.048236502546	277.675872321043	965.206573620574	1088.043846122001	229.978904232002	964.580579218157	826.341050526671	225.692958743119	1292.574675108943	1116.756503427394	755.350293255581	1504.671066674061	1205.576295931848	657.398957239254	
127	57.332000000000	943.253836736524	996.526399280280	507.120306321441	1084.098122268814	1425.587197279067	308.643615200080	1213.417931584562	1360.956570611641	450.858877465713	1157.523837346811	1430.932484430557	637.027700961938	1088.912628047188	1487.178043314654	464.623065204654	1184.052073483667	931.388911220970	595.602436379980	1138.785195612487	956.811992410056	325.095278795724	1183.335112385805	719.452361982759	565.134382911956	1085.499845272442	622.119671969127	633.367728392021	1140.627503828264	558.580588426964	548.179589707890	1120.824039792365	470.923998584177	553.307962077279	1213.778535917692	762.163570712242	350.436234220775	1149.825578880925	634.217629191967	282.415420544680	1253.405693660044	573.147784511434	339.257071521056	1271.963826598015	504.662699558201	338.481872385242	1250.693214963844	431.650286803473	328.488403104369	1171.467142623925	307.653325380006	281.431378973687	1249.900557112802	201.401907720351	335.079150083968	1078.079096127385	387.917157313075	563.123832448607	994.256401246305	297.825998774735	632.511447220629	1011.241215358300	197.926542751116	565.313636091319	854.774469177286	44.009715579346	545.450717501296	1027.391050587812	95.584812962611	571.698732122614	941.416977715384	37.290701827112	615.953483245044	1149.071324282641	42.686813754242	594.477678479358	1148.744984687065	39.005515814645	380.465732367647	1216.931749660954	35.892488121042	295.134911948648	1300.601282305452	98.806892220694	316.046928921027	1427.053699671624	49.565643143601	278.541340421296	967.536401134699	1085.934894932978	226.777805627404	969.485130389295	824.164863655682	222.214709429343	1289.651717141095	1115.759872742717	753.472933846273	1503.018008912337	1201.358620472996	654.802113687264	
128	57.345428571429	944.352128914872	995.963222026006	504.640880455598	1084.112733950657	1424.675228200371	305.266340791656	1213.606770123556	1360.928507072734	447.724627201526	1157.341753410832	1431.246428576095	633.704646233189	1088.695298957157	1486.782951404707	461.049473609962	1185.206088236176	931.061273839615	593.236328246162	1140.093268836716	956.558866996296	322.884185510953	1184.243997670446	718.677213765816	562.964076606673	1086.066861101004	621.493510570253	631.176744251178	1141.036676845985	557.642056641823	546.086983365905	1120.958999338086	469.318802394703	551.396618304595	1215.759014403816	762.057828800138	349.072518669473	1151.505737051171	634.369838525620	281.135744841082	1254.626625822699	573.203904204553	338.461686493318	1271.896973864312	503.890038393161	338.192067264320	1250.463650068289	430.433352241181	328.003781509685	1170.257207981940	307.279601841641	280.167978385832	1246.457790676832	200.225398710352	335.346821408455	1076.824659353191	386.952196864105	561.433298753004	992.004911127595	298.101818649473	631.325021178150	1007.530360700941	197.757507934329	564.546012111025	849.482824531531	44.942916605183	545.470673923525	1022.388801498897	95.692433231796	571.615953984380	936.198895480388	37.639190170156	615.873159141167	1143.927841933160	42.167821250899	594.569063087229	1142.752985027585	38.733908371916	380.528634112317	1210.982908698448	35.748543627343	295.162836356824	1295.051910116736	97.973726474479	316.784877556497	1421.353150150199	48.136088482410	279.092063369312	970.455663746092	1083.858966769118	223.288948710454	975.296532605120	822.055579556726	218.363041323009	1286.132369006438	1114.762172256941	751.733790166182	1501.252630440418	1195.860731985968	652.382069350614	
129	57.358857142857	945.373843137867	995.659507995823	502.152881015290	1084.213818342865	1423.964612269309	301.863486903933	1213.880813937835	1361.021109389480	444.535349330472	1157.350426521501	1431.780801234849	630.308361110566	1088.600623028957	1486.593931488000	457.418484909446	1186.238203089739	930.942088702684	590.763525020073	1141.246831743069	956.527140996389	320.515546514746	1185.155270483366	718.146927150754	560.664407801131	1086.868885831113	620.988681030053	628.894958158458	1141.848281332292	556.897207244021	543.939656031472	1121.711122950988	467.731484671560	549.604125401764	1217.581959475807	762.315571302017	347.483648624060	1153.107108352610	634.815220618136	279.571862665815	1255.745019277287	573.439972856798	337.183396803996	1271.785959260030	503.422289539849	337.430521332925	1250.235668087377	429.569758017862	327.190193686435	1169.213066601836	307.194754757098	278.551380473978	1243.278717521074	199.477403811333	335.281772593368	1075.987324321610	386.084313377324	559.784325450702	990.033534394921	298.618680943361	630.118466517221	1004.077096989590	197.808378194482	563.812861375030	844.270451902460	46.356366019037	545.501880166167	1017.576671082388	95.896303500567	571.578713200737	931.053313985084	38.231444626532	615.796815485023	1138.834890546128	41.578502138884	594.660185523277	1137.316852911178	38.630246751922	380.312413733220	1205.623845265303	35.766053973200	294.954199988206	1289.876098134880	97.627449941545	317.097988631566	1416.123472676801	47.529123177112	279.368616556599	973.920328546556	1081.866866427013	219.534840984587	982.006657906439	820.084117505963	214.167864939603	1282.039104089129	1113.810518667503	750.100883618941	1499.294730867396	1189.062468364822	650.125425038333	
